<?xml version="1.0" standalone="no"?>
<!DOCTYPE svg PUBLIC "-//W3C//DTD SVG 20010904//EN"
 "http://www.w3.org/TR/2001/REC-SVG-20010904/DTD/svg10.dtd">
<svg version="1.0" xmlns="http://www.w3.org/2000/svg"
 width="512.000000pt" height="512.000000pt" viewBox="0 0 512.000000 512.000000"
 preserveAspectRatio="xMidYMid meet">
<metadata>
Created by potrace 1.14, written by Peter Selinger 2001-2017
</metadata>
<g transform="translate(0.000000,512.000000) scale(0.100000,-0.100000)"
fill="#000000" stroke="none">
<path d="M2470 5110 c-25 -5 -74 -24 -110 -42 -36 -19 -479 -272 -984 -563
-686 -396 -932 -542 -968 -577 -58 -57 -103 -147 -117 -238 -14 -86 -15 -2171
-1 -2255 18 -111 48 -174 115 -240 52 -52 140 -105 635 -390 316 -181 742
-425 945 -543 204 -118 393 -224 420 -235 40 -17 72 -21 155 -21 99 -1 109 1
175 32 39 18 486 273 994 565 643 370 940 547 977 580 61 56 109 143 124 228
7 37 10 445 8 1185 -3 1128 -3 1129 -24 1181 -30 72 -86 145 -142 186 -84 61
-1911 1108 -1969 1129 -66 23 -169 31 -233 18z m325 -1055 c423 -69 785 -301
1022 -653 30 -46 54 -84 52 -86 -5 -4 -652 -376 -654 -376 -1 0 -26 32 -55 71
-94 126 -231 221 -390 271 -63 19 -96 23 -210 23 -114 0 -147 -4 -210 -23
-253 -79 -432 -259 -512 -512 -19 -63 -23 -96 -23 -210 0 -114 4 -147 23 -210
67 -214 200 -370 397 -465 111 -53 205 -75 327 -75 252 0 496 131 625 335 15
25 31 44 34 42 31 -12 648 -374 649 -380 1 -28 -140 -207 -245 -312 -220 -220
-459 -352 -758 -417 -87 -19 -133 -22 -307 -22 -174 0 -220 3 -307 22 -300 65
-561 210 -775 430 -205 211 -339 461 -403 752 -22 100 -31 392 -16 502 94 662
601 1182 1261 1293 106 18 366 18 475 0z m1255 -1195 l0 -60 90 0 90 0 0 60 0
60 75 0 75 0 0 -60 0 -60 60 0 60 0 0 -75 0 -75 -60 0 -60 0 0 -95 0 -95 60 0
60 0 0 -75 0 -75 -60 0 -60 0 0 -60 0 -60 -75 0 -75 0 0 60 0 60 -90 0 -90 0
0 -60 0 -60 -75 0 -75 0 0 60 0 60 -60 0 -60 0 0 75 0 74 58 3 57 3 3 93 3 92
-61 0 -60 0 0 75 0 75 60 0 60 0 0 60 0 60 75 0 75 0 0 -60z"/>
<path d="M4050 2555 l0 -95 90 0 90 0 0 95 0 95 -90 0 -90 0 0 -95z"/>
</g>
</svg>
