<?xml version="1.0" standalone="no"?>
<!DOCTYPE svg PUBLIC "-//W3C//DTD SVG 20010904//EN"
 "http://www.w3.org/TR/2001/REC-SVG-20010904/DTD/svg10.dtd">
<svg version="1.0" xmlns="http://www.w3.org/2000/svg"
 width="512.000000pt" height="512.000000pt" viewBox="0 0 512.000000 512.000000"
 preserveAspectRatio="xMidYMid meet">
<metadata>
Created by potrace 1.14, written by Peter Selinger 2001-2017
</metadata>
<g transform="translate(0.000000,512.000000) scale(0.100000,-0.100000)"
fill="#000000" stroke="none">
<path d="M2420 5097 c-37 -13 -311 -164 -630 -349 -311 -179 -738 -425 -950
-547 -431 -248 -465 -274 -522 -395 l-33 -71 0 -1175 0 -1175 24 -55 c31 -70
78 -133 133 -175 49 -38 1775 -1035 1912 -1105 l89 -45 116 0 c109 0 120 2
181 31 98 47 1888 1081 1938 1119 58 45 108 109 135 175 l22 55 3 1149 c3
1266 5 1218 -59 1317 -16 26 -51 67 -77 91 -61 56 -1909 1123 -2002 1155 -88
30 -192 30 -280 0z m430 -1057 c398 -81 736 -304 961 -637 27 -40 49 -76 49
-80 0 -4 -17 -18 -38 -29 -20 -12 -166 -96 -324 -187 l-286 -165 -31 48 c-17
27 -68 82 -112 124 -92 87 -214 153 -334 182 -100 24 -267 22 -368 -5 -258
-68 -470 -280 -538 -538 -27 -101 -29 -268 -5 -368 51 -214 203 -403 401 -500
122 -60 204 -79 340 -78 183 1 347 60 480 174 55 47 140 144 164 187 8 13 14
15 28 6 10 -6 156 -90 325 -188 l307 -178 -37 -58 c-288 -454 -813 -725 -1345
-696 -741 39 -1345 606 -1426 1339 -20 180 -7 367 39 546 134 524 556 947
1081 1081 211 54 465 62 669 20z m1192 -1187 l3 -58 93 -3 92 -3 0 61 0 60 75
0 75 0 0 -60 0 -60 60 0 60 0 0 -70 0 -70 -60 0 -60 0 0 -95 0 -95 60 0 60 0
0 -70 0 -70 -60 0 -60 0 0 -60 0 -60 -75 0 -75 0 0 60 0 61 -92 -3 -93 -3 -3
-57 -3 -58 -69 0 -70 0 0 60 0 60 -60 0 -60 0 0 70 0 70 60 0 60 0 0 95 0 95
-60 0 -60 0 0 70 0 70 60 0 60 0 0 60 0 60 70 0 69 0 3 -57z"/>
<path d="M4044 2637 c-3 -8 -4 -49 -2 -93 l3 -79 93 -3 92 -3 0 96 0 95 -90 0
c-67 0 -92 -4 -96 -13z"/>
</g>
</svg>
